<svg width="152" height="36" viewBox="0 0 152 36" fill="none" xmlns="http://www.w3.org/2000/svg">
<rect x="107" y="10.951" width="10" height="24" fill="#1E40AF"/>
<rect x="117" y="10.951" width="10" height="35" transform="rotate(-90 117 10.951)" fill="#1E40AF"/>
<rect x="139" y="34.951" width="10" height="30" transform="rotate(180 139 34.951)" fill="#1E40AF"/>
<path d="M9.604 35.084C7.84 35.084 6.223 34.643 4.753 33.761C3.31567 32.8463 2.156 31.654 1.274 30.184C0.424667 28.6813 0 27.0317 0 25.235V22.981C0 22.8177 0.0816666 22.736 0.245 22.736H5.733C5.86367 22.736 5.929 22.8177 5.929 22.981V25.235C5.929 26.313 6.28833 27.244 7.007 28.028C7.72567 28.7793 8.59133 29.155 9.604 29.155C10.6167 29.155 11.4823 28.763 12.201 27.979C12.9197 27.195 13.279 26.2803 13.279 25.235C13.279 24.0263 12.495 22.981 10.927 22.099C10.4043 21.805 9.58767 21.3477 8.477 20.727C7.36633 20.1063 6.321 19.5183 5.341 18.963C3.54433 17.9177 2.205 16.611 1.323 15.043C0.473667 13.4423 0.049 11.6457 0.049 9.653C0.049 7.82367 0.49 6.19033 1.372 4.753C2.254 3.283 3.41367 2.12333 4.851 1.274C6.321 0.424667 7.90533 0 9.604 0C11.3353 0 12.9197 0.441001 14.357 1.323C15.827 2.17233 16.9867 3.332 17.836 4.802C18.718 6.23933 19.159 7.85633 19.159 9.653V13.671C19.159 13.8017 19.0937 13.867 18.963 13.867H13.475C13.3443 13.867 13.279 13.8017 13.279 13.671L13.23 9.653C13.23 8.50967 12.8707 7.57867 12.152 6.86C11.4333 6.14133 10.584 5.782 9.604 5.782C8.59133 5.782 7.72567 6.174 7.007 6.958C6.28833 7.70934 5.929 8.60767 5.929 9.653C5.929 10.731 6.15767 11.6293 6.615 12.348C7.07233 13.0667 7.90533 13.7527 9.114 14.406C9.27733 14.504 9.58767 14.6837 10.045 14.945C10.535 15.1737 11.0577 15.4513 11.613 15.778C12.1683 16.072 12.6583 16.3333 13.083 16.562C13.5403 16.7907 13.818 16.9377 13.916 17.003C15.5493 17.9177 16.8397 19.0447 17.787 20.384C18.7343 21.6907 19.208 23.3077 19.208 25.235C19.208 27.097 18.767 28.7793 17.885 30.282C17.0357 31.752 15.876 32.928 14.406 33.81C12.9687 34.6593 11.368 35.084 9.604 35.084Z" fill="white"/>
<path d="M22.8118 34.594C22.6811 34.594 22.6158 34.5123 22.6158 34.349L22.6648 0.686C22.6648 0.555333 22.7465 0.49 22.9098 0.49H28.3488C28.5121 0.49 28.5938 0.555333 28.5938 0.686L28.5448 14.014H35.8948V0.686C35.8948 0.555333 35.9601 0.49 36.0908 0.49H41.5298C41.6931 0.49 41.7748 0.555333 41.7748 0.686L41.8728 34.349C41.8728 34.5123 41.7911 34.594 41.6278 34.594H36.1398C35.9765 34.594 35.8948 34.5123 35.8948 34.349V19.943H28.5448V34.349C28.5448 34.5123 28.4795 34.594 28.3488 34.594H22.8118Z" fill="white"/>
<path d="M84.5112 34.594C84.3479 34.594 84.2662 34.5123 84.2662 34.349L84.3642 0.686C84.3642 0.555333 84.4295 0.49 84.5602 0.49H93.9682C96.9735 0.49 99.3419 1.40467 101.073 3.234C102.837 5.06333 103.719 7.546 103.719 10.682C103.719 13.0013 103.262 15.0103 102.347 16.709C101.433 18.4077 100.24 19.7143 98.7702 20.629C97.3002 21.5437 95.6995 22.001 93.9682 22.001H90.2442V34.349C90.2442 34.5123 90.1625 34.594 89.9992 34.594H84.5112ZM90.2442 16.072H93.9682C95.0135 16.072 95.9119 15.582 96.6632 14.602C97.4472 13.5893 97.8392 12.2827 97.8392 10.682C97.8392 9.408 97.4962 8.36267 96.8102 7.546C96.1242 6.72933 95.1769 6.321 93.9682 6.321L90.2442 6.37V16.072Z" fill="white"/>
<path d="M70.5556 10.3954H55.4444V25.5066H70.5556V10.3954Z" fill="#1E40AF"/>
<path fill-rule="evenodd" clip-rule="evenodd" d="M61.5833 4.72878V2.36767C61.5833 1.99195 61.7326 1.63161 61.9983 1.36594C62.2639 1.10026 62.6243 0.951004 63 0.951004C63.3757 0.951004 63.7361 1.10026 64.0017 1.36594C64.2674 1.63161 64.4167 1.99195 64.4167 2.36767V4.72878H67.25V2.36767C67.25 1.99195 67.3993 1.63161 67.6649 1.36594C67.9306 1.10026 68.2909 0.951004 68.6667 0.951004C69.0424 0.951004 69.4027 1.10026 69.6684 1.36594C69.9341 1.63161 70.0833 1.99195 70.0833 2.36767V4.72878H71.0278C72.4054 4.72878 73.7267 5.27605 74.7008 6.2502C75.675 7.22435 76.2222 8.54557 76.2222 9.92323V10.8677H78.5833C78.9591 10.8677 79.3194 11.0169 79.5851 11.2826C79.8507 11.5483 80 11.9086 80 12.2843C80 12.6601 79.8507 13.0204 79.5851 13.2861C79.3194 13.5517 78.9591 13.701 78.5833 13.701H76.2222V16.5343H78.5833C78.9591 16.5343 79.3194 16.6836 79.5851 16.9493C79.8507 17.2149 80 17.5753 80 17.951C80 18.3267 79.8507 18.6871 79.5851 18.9527C79.3194 19.2184 78.9591 19.3677 78.5833 19.3677H76.2222V22.201H78.5833C78.9591 22.201 79.3194 22.3503 79.5851 22.6159C79.8507 22.8816 80 23.2419 80 23.6177C80 23.9934 79.8507 24.3537 79.5851 24.6194C79.3194 24.8851 78.9591 25.0343 78.5833 25.0343H76.2222V25.9788C76.2222 27.3564 75.675 28.6777 74.7008 29.6518C73.7267 30.626 72.4054 31.1732 71.0278 31.1732H70.0833V33.5343C70.0833 33.9101 69.9341 34.2704 69.6684 34.5361C69.4027 34.8017 69.0424 34.951 68.6667 34.951C68.2909 34.951 67.9306 34.8017 67.6649 34.5361C67.3993 34.2704 67.25 33.9101 67.25 33.5343V31.1732H64.4167V33.5343C64.4167 33.9101 64.2674 34.2704 64.0017 34.5361C63.7361 34.8017 63.3757 34.951 63 34.951C62.6243 34.951 62.2639 34.8017 61.9983 34.5361C61.7326 34.2704 61.5833 33.9101 61.5833 33.5343V31.1732H58.75V33.5343C58.75 33.9101 58.6007 34.2704 58.3351 34.5361C58.0694 34.8017 57.7091 34.951 57.3333 34.951C56.9576 34.951 56.5973 34.8017 56.3316 34.5361C56.0659 34.2704 55.9167 33.9101 55.9167 33.5343V31.1732H54.9722C53.5946 31.1732 52.2733 30.626 51.2992 29.6518C50.325 28.6777 49.7778 27.3564 49.7778 25.9788V25.0343H47.4167C47.0409 25.0343 46.6806 24.8851 46.4149 24.6194C46.1493 24.3537 46 23.9934 46 23.6177C46 23.2419 46.1493 22.8816 46.4149 22.6159C46.6806 22.3503 47.0409 22.201 47.4167 22.201H49.7778V19.3677H47.4167C47.0409 19.3677 46.6806 19.2184 46.4149 18.9527C46.1493 18.6871 46 18.3267 46 17.951C46 17.5753 46.1493 17.2149 46.4149 16.9493C46.6806 16.6836 47.0409 16.5343 47.4167 16.5343H49.7778V13.701H47.4167C47.0409 13.701 46.6806 13.5517 46.4149 13.2861C46.1493 13.0204 46 12.6601 46 12.2843C46 11.9086 46.1493 11.5483 46.4149 11.2826C46.6806 11.0169 47.0409 10.8677 47.4167 10.8677H49.7778V9.92323C49.7778 8.54557 50.325 7.22435 51.2992 6.2502C52.2733 5.27605 53.5946 4.72878 54.9722 4.72878H55.9167V2.36767C55.9167 1.99195 56.0659 1.63161 56.3316 1.36594C56.5973 1.10026 56.9576 0.951004 57.3333 0.951004C57.7091 0.951004 58.0694 1.10026 58.3351 1.36594C58.6007 1.63161 58.75 1.99195 58.75 2.36767V4.72878H61.5833ZM52.6111 9.92323C52.6111 8.61989 53.6689 7.56211 54.9722 7.56211H71.0278C72.3311 7.56211 73.3889 8.61989 73.3889 9.92323V25.9788C73.3889 27.2821 72.3311 28.3399 71.0278 28.3399H54.9722C53.6689 28.3399 52.6111 27.2821 52.6111 25.9788V9.92323Z" fill="white"/>
</svg>
